<svg id="SvgjsSvg1011" width="288" height="288" xmlns="http://www.w3.org/2000/svg" version="1.1" xmlns:xlink="http://www.w3.org/1999/xlink" xmlns:svgjs="http://svgjs.com/svgjs"><defs id="SvgjsDefs1012"></defs><g id="SvgjsG1013"><svg xmlns="http://www.w3.org/2000/svg" viewBox="0 0 32 32" width="288" height="288"><path d="M22 7c0-3.309-2.691-6-6-6s-6 2.691-6 6 2.691 6 6 6 6-2.691 6-6zM12 7c0-2.206 1.794-4 4-4s4 1.794 4 4-1.794 4-4 4-4-1.794-4-4zM5.213 25.137V28c0 1.654 1.346 3 3 3h15.574c1.654 0 3-1.346 3-3v-2.863c0-5.949-4.839-10.787-10.787-10.787S5.213 19.188 5.213 25.137zM16 16.35c4.846 0 8.787 3.941 8.787 8.787V28c0 .551-.448 1-1 1H8.213c-.552 0-1-.449-1-1v-2.863c0-4.846 3.941-8.787 8.787-8.787z" fill="#ffffff" class="color000 svgShape"></path></svg></g></svg>